<svg id="Capa_1" enable-background="new 0 0 512 512" height="512" viewBox="0 0 512 512" width="512" xmlns="http://www.w3.org/2000/svg"><g><g><g><g><g><g><g><circle cx="256" cy="256" fill="#ff6c52" r="256"/></g></g></g></g></g></g><path d="m512 256c0-38.174-8.356-74.396-23.337-106.938l-53.663-53.663-358 256.724 159.116 159.116c6.562.504 13.193.761 19.884.761 141.385 0 256-114.615 256-256z" fill="#f92814"/><g><path d="m209.738 327.363h92.525v84.706h-92.525z" fill="#414952"/></g><g><path d="m256.12 327.363h46.142v84.706h-46.142z" fill="#23272b"/></g><g><path d="m188.887 402.946h134.226v39.095h-134.226z" fill="#636978"/></g><g><path d="m256.12 402.946h66.993v39.095h-66.993z" fill="#414952"/></g><g><path d="m77 95.399h358v256.724h-358z" fill="#636978"/></g><g><path d="m256.12 95.399h178.88v256.723h-178.88z" fill="#414952"/></g><g><path d="m108.419 124.552h295.162v198.418h-295.162z" fill="#fff"/></g><g><path d="m256.12 124.552h147.461v198.418h-147.461z" fill="#e9edf5"/></g><g><g><path d="m378.431 301.562h-30c0-10.153-7.201-15.794-23.634-26.244-16.723-10.635-37.534-23.871-37.534-51.559 0-27.687 20.811-40.922 37.534-51.557 16.433-10.45 23.634-16.09 23.634-26.242h30c0 27.687-20.812 40.922-37.535 51.557-16.432 10.45-23.633 16.09-23.633 26.242 0 10.153 7.201 15.794 23.634 26.245 16.722 10.635 37.534 23.871 37.534 51.558z" fill="#7584f2"/></g><g><path d="m317.263 301.562h-30c0-27.688 20.811-40.923 37.534-51.558 16.433-10.451 23.634-16.091 23.634-26.245 0-10.152-7.201-15.792-23.633-26.242-16.724-10.635-37.535-23.87-37.535-51.557h30c0 10.152 7.201 15.792 23.634 26.242 16.723 10.635 37.534 23.87 37.534 51.557 0 27.688-20.812 40.924-37.534 51.559-16.433 10.451-23.634 16.091-23.634 26.244z" fill="#ff6c52"/></g></g><g><g><path d="m135.499 154.354h110.118v30h-110.118z" fill="#bec3d2"/></g><g><path d="m135.499 263.168h110.118v30h-110.118z" fill="#bec3d2"/></g></g><g><path d="m135.499 208.761h110.118v30h-110.118z" fill="#bec3d2"/></g></g></svg>