<svg height="512" viewBox="0 0 512 512" width="512" xmlns="http://www.w3.org/2000/svg"><g id="Flat"><path d="m120 152v229.43994a99.81586 99.81586 0 0 1 -24 2.56006 99.81586 99.81586 0 0 1 -24-2.56006v-229.43994z" fill="#c82226"/><path d="m104 128h16v24h-16z" fill="#e23e21"/><path d="m448 152v227.06006c-7.89014 2.75-17.21 4.93994-32 4.93994a113.35632 113.35632 0 0 1 -16-1.03v-230.97z" fill="#c82226"/><path d="m432 128h16v24h-16z" fill="#e23e21"/><path d="m416 128v24a7.95776 7.95776 0 0 1 -2.06006 5.35l-.18994.23a572.37 572.37 0 0 1 -128.28 106.42q-13.7699 8.36994-28.06006 16-6.85473 3.67493-13.82983 7.15991l-22.54 11.26-7.14997-14.30991 8.21972-4.11 14.31006-7.16q8.58033-4.29 16.97022-8.84a555.98447 555.98447 0 0 0 146.60986-115.08008v-20.91992z" fill="#d22627"/><path d="m400 184h16v96h-16z" fill="#e23e21"/><path d="m368 216h16v64h-16z" fill="#e23e21"/><path d="m336 240h16v40h-16z" fill="#e23e21"/><path d="m464 184h16v96h-16z" fill="#e23e21"/><path d="m336 240h16v20.80005q-3.61487 2.45983-7.18994 4.82-4.40991 2.91009-8.81006 5.71z" fill="#d22627"/><path d="m368 216h16v21.34c-2.08008 1.63-4.17993 3.26-6.29 4.87-3.17993 2.43994-6.42993 4.87-9.71 7.27z" fill="#d22627"/><path d="m400 184h16v26.27q-2.67 2.415-5.39014 4.83c-3.42993 3.04992-6.98 6.13-10.60986 9.19006z" fill="#d22627"/><path d="m480 184v40.28c-3.6001-3.03-7.14014-6.1001-10.60986-9.17q-2.70007-2.4-5.39014-4.86v-26.25z" fill="#d22627"/><path d="m496 195.85v20.95007q-8.11487-6.69012-16-13.67005-8.12988-7.2149-16-14.74-12.33-11.79-24-24.38-11.67 12.57-24 24.37-7.86 7.54487-16 14.74-7.875 7.00506-16 13.68-7.875 6.49498-16 12.68998-7.89 6.045-16 11.8-7.905 5.625-16 10.97-9.13513 6.045-18.52 11.74-13.7699 8.385-28.07007 16-6.85473 3.67493-13.82983 7.15991l-22.54 11.26-7.14996-14.30991 8.21972-4.11 14.31006-7.16q8.56494-4.29 16.96-8.84a556.5707 556.5707 0 0 0 148.67013-117.19995 8.0043 8.0043 0 0 1 11.8999 0 557.98033 557.98033 0 0 0 50.05005 49.04995z" fill="#e23e21"/><path d="m317.48 264q-13.7699 8.385-28.07007 16h-35.30007l14.31006-7.16q8.56494-4.29 16.96-8.84z" fill="#d22627"/><path d="m336 264h16v16h-16z" fill="#d22627"/><path d="m368 264h16v16h-16z" fill="#d22627"/><path d="m400 264h16v16h-16z" fill="#d22627"/><path d="m464 264h16v16h-16z" fill="#d22627"/><path d="m285.47 264q-13.7699 8.36994-28.06006 16h-35.30008l14.31006-7.16q8.58033-4.29 16.97022-8.84z" fill="#c01c2c"/><path d="m72 184h16v96h-16z" fill="#e23e21"/><path d="m40 216h16v64h-16z" fill="#e23e21"/><path d="m136 184h16v96h-16z" fill="#e23e21"/><path d="m168 216h16v64h-16z" fill="#e23e21"/><path d="m200 240h16v40h-16z" fill="#e23e21"/><path d="m40 216h16v21.30005q-7.905 6.23987-16 12.1499z" fill="#d22627"/><path d="m72 184h16v26.24q-7.875 7.17-16 14.03z" fill="#d22627"/><path d="m136 184h16v40.29q-8.11487-6.85511-16-14.03z" fill="#d22627"/><path d="m168 216h16v33.47q-8.09985-5.92493-16-12.14z" fill="#d22627"/><path d="m216 240v31.34q-5.655-3.6-11.23-7.34c-1.6001-1.05-3.18994-2.13-4.77-3.21v-20.79z" fill="#d22627"/><path d="m283.58008 272.84-3.58008 7.16-3.58008 7.15991q-6.97485-3.49491-13.82983-7.15991-14.295-7.62012-28.07007-16-9.39-5.68506-18.52-11.74-8.09985-5.34009-16-10.97-8.11487-5.76014-16-11.8-8.11487-6.195-16-12.68994-8.12988-6.69012-16-13.68-8.12988-7.1999-16-14.74-12.33-11.79-24-24.37-11.655 12.57-24 24.38-7.86 7.52985-16 14.74-7.875 6.99006-16 13.67005-7.89002 6.49489-16.00002 12.68989-11.76013 9-24 17.38v-19.54a556.177 556.177 0 0 0 90.05005-80.52991 8.0043 8.0043 0 0 1 11.8999 0 556.5707 556.5707 0 0 0 148.67017 117.19991q8.38476 4.56006 16.95996 8.84z" fill="#e23e21"/><g fill="#d22627"><path d="m40 264h16v16h-16z"/><path d="m72 264h16v16h-16z"/><path d="m136 264h16v16h-16z"/><path d="m168 264h16v16h-16z"/><path d="m200 264h16v16h-16z"/><path d="m283.58008 272.84-3.58008 7.16h-17.40991q-14.295-7.62012-28.07007-16h32.1001q8.38476 4.56006 16.95996 8.84z"/><path d="m88 128v24a7.95776 7.95776 0 0 1 -2.06006 5.35l-.18994.23a574.54561 574.54561 0 0 1 -69.75 65.62v-20.62993a558.951 558.951 0 0 0 56-53.65015v-20.91992z"/></g><path d="m16 280h480v32h-480z" fill="#e23e21"/><path d="m416 392a120.95258 120.95258 0 0 1 -17.126-1.10938c-11.14941-1.58056-18.626-4.5708-25.85547-7.46289-9.5488-3.81982-18.56931-7.42773-37.0283-7.42773s-27.47949 3.60791-37.02929 7.42773c-10.53516 4.21436-21.42969 8.57227-42.97071 8.57227-21.542 0-32.43652-4.3584-42.97168-8.57324-9.54785-3.81934-18.56543-7.42676-37.01855-7.42676-18.46094 0-27.47852 3.60791-37.02637 7.42725a120.19706 120.19706 0 0 1 -17.082 5.78564 108.93413 108.93413 0 0 1 -25.89163 2.78711 108.94468 108.94468 0 0 1 -25.88867-2.78613 120.23512 120.23512 0 0 1 -17.085-5.78662c-9.54781-3.81934-18.56539-7.42725-37.02633-7.42725v-16c21.542 0 32.43555 4.35742 42.96973 8.57178a105.71814 105.71814 0 0 0 14.92187 5.09522 92.02493 92.02493 0 0 0 22.1084 2.333 92.01481 92.01481 0 0 0 22.11133-2.334 105.68134 105.68134 0 0 0 14.91894-5.09424c10.53418-4.21434 21.42773-8.57176 42.96973-8.57176 21.53516 0 32.42773 4.35742 42.96094 8.57178 9.54883 3.81982 18.56933 7.42822 37.02929 7.42822 18.459 0 27.4795-3.60791 37.0293-7.42773 10.53516-4.21436 21.42969-8.57227 42.9707-8.57227 21.54 0 32.43457 4.35791 42.97071 8.57227 6.64258 2.65673 12.917 5.1665 22.16211 6.47705a105.18161 105.18161 0 0 0 14.87695.95068c14.51562 0 22.99121-2.272 29.36719-4.49414 2.61621-.91309 5.07226-1.895 7.67187-2.93506 10.53516-4.21387 21.42871-8.5708 42.96094-8.5708v16c-18.45117 0-27.4707 3.60742-37.01953 7.42676-2.64844 1.05908-5.3877 2.15478-8.34473 3.18652-7.64355 2.66406-17.73242 5.38672-34.63574 5.38672z" fill="#93d5f0"/></g></svg>